<svg width="143" height="101" viewBox="0 0 143 101" fill="none" xmlns="http://www.w3.org/2000/svg">
<path d="M33.228 71.6H34.212L37.2 80H36.252L35.472 77.732H31.968L31.188 80H30.24L33.228 71.6ZM35.208 76.94L33.732 72.656H33.708L32.244 76.94H35.208Z" fill="black"/>
<circle cx="30.5" cy="70.5" r="29.5" fill="#FFCC3C" stroke="black" stroke-width="2"/>
<circle cx="112.5" cy="30.5" r="29.5" fill="#FFCC3C" stroke="black" stroke-width="2"/>
<path d="M28.8577 56H32.1377L42.0977 84H38.9377L36.3377 76.44H24.6577L22.0577 84H18.8977L28.8577 56ZM35.4577 73.8L30.5377 59.52H30.4577L25.5777 73.8H35.4577Z" fill="black"/>
<path d="M102.27 16H117.99L121.67 19.68V27.44L119.75 29.36L122.91 32.52V40.08L118.99 44H102.27V16ZM116.71 28.64L118.71 26.64V20.6L116.71 18.64H105.23V28.64H116.71ZM117.63 41.36L119.95 39.08V33.48L117.63 31.2H105.23V41.36H117.63Z" fill="black"/>
</svg>
