<svg width="718" height="415" viewBox="0 0 718 415" fill="none" xmlns="http://www.w3.org/2000/svg">
<g filter="url(#filter0_d_1_78)">
<g filter="url(#filter1_i_1_78)">
<path d="M59 48.8628C59 43.8046 62.777 39.5429 67.7986 38.9352L204.799 22.3556C210.754 21.6348 216 26.2839 216 32.2832V75C216 80.5228 211.523 85 206 85H69C63.4771 85 59 80.5228 59 75V48.8628Z" fill="#D7F2F9"/>
</g>
<g filter="url(#filter2_i_1_78)">
<path d="M683 48.8628C683 43.8046 679.223 39.5429 674.201 38.9352L537.201 22.3556C531.246 21.6348 526 26.2839 526 32.2832V75C526 80.5228 530.477 85 536 85H673C678.523 85 683 80.5228 683 75V48.8628Z" fill="#D7F2F9"/>
</g>
<g filter="url(#filter3_i_1_78)">
<path d="M59 346.137C59 351.195 62.777 355.457 67.7986 356.065L204.799 372.644C210.754 373.365 216 368.716 216 362.717V320C216 314.477 211.523 310 206 310H69C63.4771 310 59 314.477 59 320V346.137Z" fill="#D7F2F9"/>
</g>
<g filter="url(#filter4_i_1_78)">
<path d="M683 346.137C683 351.195 679.223 355.457 674.201 356.065L537.201 372.644C531.246 373.365 526 368.716 526 362.717V320C526 314.477 530.477 310 536 310H673C678.523 310 683 314.477 683 320V346.137Z" fill="#D7F2F9"/>
</g>
<path d="M63 88H172V307H63V88Z" fill="#161616"/>
<path d="M172 166H679V229H172V166Z" fill="#161616"/>
<circle cx="81.5" cy="197.5" r="62.5" fill="#161616"/>
<g filter="url(#filter5_ii_1_78)">
<path fill-rule="evenodd" clip-rule="evenodd" d="M151.435 206H10.565C14.9878 240.963 44.8365 268 81 268C117.164 268 147.012 240.963 151.435 206ZM151.659 190H10.3407C13.8566 154.073 44.1498 126 81 126C117.85 126 148.143 154.073 151.659 190Z" fill="#D7F2F9"/>
</g>
<g filter="url(#filter6_d_1_78)">
<circle cx="81.5" cy="197.5" r="46.5" fill="#161616"/>
</g>
<circle cx="81.5" cy="197.5" r="26.5" fill="#05C8FF"/>
<rect x="211" y="35" width="325" height="322" rx="20" fill="#161616"/>
<rect x="224" y="49" width="298" height="295" rx="10" fill="#05C8FF"/>
<g filter="url(#filter7_ii_1_78)">
<path fill-rule="evenodd" clip-rule="evenodd" d="M211 229H171.207C165.34 273.032 127.637 307 82 307H56V322C56 327.523 60.4772 332 66 332H65C103.089 336.423 141 342 158 348C170.405 352.378 183.875 361.815 197.633 371.453C202.604 374.936 207.613 378.445 212.623 381.752C215 383.32 220.08 385 223 385H521C523.92 385 529 383.32 531.377 381.752C536.386 378.446 541.394 374.937 546.365 371.455L546.367 371.453C560.125 361.815 573.595 352.378 586 348C603 342 640.911 336.423 679 332H678C683.523 332 688 327.523 688 322V239C688 233.477 683.523 229 678 229H536V337C536 348.046 527.046 357 516 357H231C219.954 357 211 348.046 211 337V229Z" fill="#EC1313"/>
</g>
<g filter="url(#filter8_ii_1_78)">
<path fill-rule="evenodd" clip-rule="evenodd" d="M212.623 13.2481C214.698 11.8791 220.5 10 223 10H521C523.92 10 529.5 12.0097 531.377 13.2481C536.386 16.5541 541.394 20.0628 546.365 23.5453L546.367 23.5469C560.125 33.1852 573.595 42.6218 586 47C603 53 640.911 58.5766 679 63H678C683.523 63 688 67.4772 688 73V156C688 161.523 683.523 166 678 166H536V55C536 43.9543 527.046 35 516 35H231C219.954 35 211 43.9543 211 55V166H171.207C165.34 121.968 127.637 88 82 88H56V73C56 67.4772 60.4772 63 66 63H65C103.089 58.5766 141 53 158 47C170.405 42.6218 183.875 33.1852 197.633 23.5469C202.604 20.0639 207.613 16.5546 212.623 13.2481Z" fill="#EC1313"/>
</g>
<rect x="549.18" y="271.021" width="46.9012" height="6" rx="3" transform="rotate(-20 549.18 271.021)" fill="#161616"/>
<rect width="33.7263" height="12.5574" rx="6.27869" transform="matrix(0.939693 0.34202 0.34202 -0.939693 169 288.8)" fill="#161616"/>
<rect width="33.7263" height="12.5574" rx="6.27869" transform="matrix(0.939693 0.34202 0.34202 -0.939693 168 309.8)" fill="#161616"/>
<rect x="549.18" y="281.021" width="46.9012" height="6" rx="3" transform="rotate(-20 549.18 281.021)" fill="#161616"/>
<rect x="549.18" y="291.021" width="46.9012" height="6" rx="3" transform="rotate(-20 549.18 291.021)" fill="#161616"/>
<rect x="549.18" y="301.021" width="46.9012" height="6" rx="3" transform="rotate(-20 549.18 301.021)" fill="#161616"/>
<g filter="url(#filter9_dii_1_78)">
<circle cx="196" cy="292" r="5" fill="#D7F2F9"/>
</g>
<g filter="url(#filter10_dii_1_78)">
<circle cx="195" cy="313" r="5" fill="#D7F2F9"/>
</g>
</g>
<defs>
<filter id="filter0_d_1_78" x="0.340698" y="0" width="717.659" height="415" filterUnits="userSpaceOnUse" color-interpolation-filters="sRGB">
<feFlood flood-opacity="0" result="BackgroundImageFix"/>
<feColorMatrix in="SourceAlpha" type="matrix" values="0 0 0 0 0 0 0 0 0 0 0 0 0 0 0 0 0 0 127 0" result="hardAlpha"/>
<feOffset dx="10" dy="10"/>
<feGaussianBlur stdDeviation="10"/>
<feComposite in2="hardAlpha" operator="out"/>
<feColorMatrix type="matrix" values="0 0 0 0 0 0 0 0 0 0 0 0 0 0 0 0 0 0 0.25 0"/>
<feBlend mode="normal" in2="BackgroundImageFix" result="effect1_dropShadow_1_78"/>
<feBlend mode="normal" in="SourceGraphic" in2="effect1_dropShadow_1_78" result="shape"/>
</filter>
<filter id="filter1_i_1_78" x="59" y="22.2818" width="157" height="66.7182" filterUnits="userSpaceOnUse" color-interpolation-filters="sRGB">
<feFlood flood-opacity="0" result="BackgroundImageFix"/>
<feBlend mode="normal" in="SourceGraphic" in2="BackgroundImageFix" result="shape"/>
<feColorMatrix in="SourceAlpha" type="matrix" values="0 0 0 0 0 0 0 0 0 0 0 0 0 0 0 0 0 0 127 0" result="hardAlpha"/>
<feOffset dy="4"/>
<feGaussianBlur stdDeviation="2"/>
<feComposite in2="hardAlpha" operator="arithmetic" k2="-1" k3="1"/>
<feColorMatrix type="matrix" values="0 0 0 0 1 0 0 0 0 1 0 0 0 0 1 0 0 0 0.8 0"/>
<feBlend mode="normal" in2="shape" result="effect1_innerShadow_1_78"/>
</filter>
<filter id="filter2_i_1_78" x="526" y="22.2818" width="157" height="66.7182" filterUnits="userSpaceOnUse" color-interpolation-filters="sRGB">
<feFlood flood-opacity="0" result="BackgroundImageFix"/>
<feBlend mode="normal" in="SourceGraphic" in2="BackgroundImageFix" result="shape"/>
<feColorMatrix in="SourceAlpha" type="matrix" values="0 0 0 0 0 0 0 0 0 0 0 0 0 0 0 0 0 0 127 0" result="hardAlpha"/>
<feOffset dy="4"/>
<feGaussianBlur stdDeviation="2"/>
<feComposite in2="hardAlpha" operator="arithmetic" k2="-1" k3="1"/>
<feColorMatrix type="matrix" values="0 0 0 0 1 0 0 0 0 1 0 0 0 0 1 0 0 0 0.8 0"/>
<feBlend mode="normal" in2="shape" result="effect1_innerShadow_1_78"/>
</filter>
<filter id="filter3_i_1_78" x="57" y="306" width="159" height="66.7182" filterUnits="userSpaceOnUse" color-interpolation-filters="sRGB">
<feFlood flood-opacity="0" result="BackgroundImageFix"/>
<feBlend mode="normal" in="SourceGraphic" in2="BackgroundImageFix" result="shape"/>
<feColorMatrix in="SourceAlpha" type="matrix" values="0 0 0 0 0 0 0 0 0 0 0 0 0 0 0 0 0 0 127 0" result="hardAlpha"/>
<feOffset dx="-2" dy="-4"/>
<feGaussianBlur stdDeviation="2"/>
<feComposite in2="hardAlpha" operator="arithmetic" k2="-1" k3="1"/>
<feColorMatrix type="matrix" values="0 0 0 0 0 0 0 0 0 0 0 0 0 0 0 0 0 0 0.25 0"/>
<feBlend mode="normal" in2="shape" result="effect1_innerShadow_1_78"/>
</filter>
<filter id="filter4_i_1_78" x="524" y="306" width="159" height="66.7182" filterUnits="userSpaceOnUse" color-interpolation-filters="sRGB">
<feFlood flood-opacity="0" result="BackgroundImageFix"/>
<feBlend mode="normal" in="SourceGraphic" in2="BackgroundImageFix" result="shape"/>
<feColorMatrix in="SourceAlpha" type="matrix" values="0 0 0 0 0 0 0 0 0 0 0 0 0 0 0 0 0 0 127 0" result="hardAlpha"/>
<feOffset dx="-2" dy="-4"/>
<feGaussianBlur stdDeviation="2"/>
<feComposite in2="hardAlpha" operator="arithmetic" k2="-1" k3="1"/>
<feColorMatrix type="matrix" values="0 0 0 0 0 0 0 0 0 0 0 0 0 0 0 0 0 0 0.25 0"/>
<feBlend mode="normal" in2="shape" result="effect1_innerShadow_1_78"/>
</filter>
<filter id="filter5_ii_1_78" x="8.3407" y="122" width="145.319" height="150" filterUnits="userSpaceOnUse" color-interpolation-filters="sRGB">
<feFlood flood-opacity="0" result="BackgroundImageFix"/>
<feBlend mode="normal" in="SourceGraphic" in2="BackgroundImageFix" result="shape"/>
<feColorMatrix in="SourceAlpha" type="matrix" values="0 0 0 0 0 0 0 0 0 0 0 0 0 0 0 0 0 0 127 0" result="hardAlpha"/>
<feOffset dx="2" dy="4"/>
<feGaussianBlur stdDeviation="2"/>
<feComposite in2="hardAlpha" operator="arithmetic" k2="-1" k3="1"/>
<feColorMatrix type="matrix" values="0 0 0 0 1 0 0 0 0 1 0 0 0 0 1 0 0 0 0.8 0"/>
<feBlend mode="normal" in2="shape" result="effect1_innerShadow_1_78"/>
<feColorMatrix in="SourceAlpha" type="matrix" values="0 0 0 0 0 0 0 0 0 0 0 0 0 0 0 0 0 0 127 0" result="hardAlpha"/>
<feOffset dx="-2" dy="-4"/>
<feGaussianBlur stdDeviation="2"/>
<feComposite in2="hardAlpha" operator="arithmetic" k2="-1" k3="1"/>
<feColorMatrix type="matrix" values="0 0 0 0 0 0 0 0 0 0 0 0 0 0 0 0 0 0 0.25 0"/>
<feBlend mode="normal" in2="effect1_innerShadow_1_78" result="effect2_innerShadow_1_78"/>
</filter>
<filter id="filter6_d_1_78" x="33" y="151" width="101" height="101" filterUnits="userSpaceOnUse" color-interpolation-filters="sRGB">
<feFlood flood-opacity="0" result="BackgroundImageFix"/>
<feColorMatrix in="SourceAlpha" type="matrix" values="0 0 0 0 0 0 0 0 0 0 0 0 0 0 0 0 0 0 127 0" result="hardAlpha"/>
<feOffset dx="2" dy="4"/>
<feGaussianBlur stdDeviation="2"/>
<feComposite in2="hardAlpha" operator="out"/>
<feColorMatrix type="matrix" values="0 0 0 0 0 0 0 0 0 0 0 0 0 0 0 0 0 0 0.25 0"/>
<feBlend mode="normal" in2="BackgroundImageFix" result="effect1_dropShadow_1_78"/>
<feBlend mode="normal" in="SourceGraphic" in2="effect1_dropShadow_1_78" result="shape"/>
</filter>
<filter id="filter7_ii_1_78" x="54" y="225" width="636" height="164" filterUnits="userSpaceOnUse" color-interpolation-filters="sRGB">
<feFlood flood-opacity="0" result="BackgroundImageFix"/>
<feBlend mode="normal" in="SourceGraphic" in2="BackgroundImageFix" result="shape"/>
<feColorMatrix in="SourceAlpha" type="matrix" values="0 0 0 0 0 0 0 0 0 0 0 0 0 0 0 0 0 0 127 0" result="hardAlpha"/>
<feOffset dx="-2" dy="-4"/>
<feGaussianBlur stdDeviation="2"/>
<feComposite in2="hardAlpha" operator="arithmetic" k2="-1" k3="1"/>
<feColorMatrix type="matrix" values="0 0 0 0 0 0 0 0 0 0 0 0 0 0 0 0 0 0 0.25 0"/>
<feBlend mode="normal" in2="shape" result="effect1_innerShadow_1_78"/>
<feColorMatrix in="SourceAlpha" type="matrix" values="0 0 0 0 0 0 0 0 0 0 0 0 0 0 0 0 0 0 127 0" result="hardAlpha"/>
<feOffset dx="2" dy="4"/>
<feGaussianBlur stdDeviation="2"/>
<feComposite in2="hardAlpha" operator="arithmetic" k2="-1" k3="1"/>
<feColorMatrix type="matrix" values="0 0 0 0 1 0 0 0 0 1 0 0 0 0 1 0 0 0 0.25 0"/>
<feBlend mode="normal" in2="effect1_innerShadow_1_78" result="effect2_innerShadow_1_78"/>
</filter>
<filter id="filter8_ii_1_78" x="54" y="6" width="636" height="164" filterUnits="userSpaceOnUse" color-interpolation-filters="sRGB">
<feFlood flood-opacity="0" result="BackgroundImageFix"/>
<feBlend mode="normal" in="SourceGraphic" in2="BackgroundImageFix" result="shape"/>
<feColorMatrix in="SourceAlpha" type="matrix" values="0 0 0 0 0 0 0 0 0 0 0 0 0 0 0 0 0 0 127 0" result="hardAlpha"/>
<feOffset dx="-2" dy="-4"/>
<feGaussianBlur stdDeviation="2"/>
<feComposite in2="hardAlpha" operator="arithmetic" k2="-1" k3="1"/>
<feColorMatrix type="matrix" values="0 0 0 0 0 0 0 0 0 0 0 0 0 0 0 0 0 0 0.25 0"/>
<feBlend mode="normal" in2="shape" result="effect1_innerShadow_1_78"/>
<feColorMatrix in="SourceAlpha" type="matrix" values="0 0 0 0 0 0 0 0 0 0 0 0 0 0 0 0 0 0 127 0" result="hardAlpha"/>
<feOffset dx="2" dy="4"/>
<feGaussianBlur stdDeviation="2"/>
<feComposite in2="hardAlpha" operator="arithmetic" k2="-1" k3="1"/>
<feColorMatrix type="matrix" values="0 0 0 0 1 0 0 0 0 1 0 0 0 0 1 0 0 0 0.25 0"/>
<feBlend mode="normal" in2="effect1_innerShadow_1_78" result="effect2_innerShadow_1_78"/>
</filter>
<filter id="filter9_dii_1_78" x="189" y="283" width="18" height="20" filterUnits="userSpaceOnUse" color-interpolation-filters="sRGB">
<feFlood flood-opacity="0" result="BackgroundImageFix"/>
<feColorMatrix in="SourceAlpha" type="matrix" values="0 0 0 0 0 0 0 0 0 0 0 0 0 0 0 0 0 0 127 0" result="hardAlpha"/>
<feOffset dx="2" dy="2"/>
<feGaussianBlur stdDeviation="2"/>
<feComposite in2="hardAlpha" operator="out"/>
<feColorMatrix type="matrix" values="0 0 0 0 0 0 0 0 0 0 0 0 0 0 0 0 0 0 0.25 0"/>
<feBlend mode="normal" in2="BackgroundImageFix" result="effect1_dropShadow_1_78"/>
<feBlend mode="normal" in="SourceGraphic" in2="effect1_dropShadow_1_78" result="shape"/>
<feColorMatrix in="SourceAlpha" type="matrix" values="0 0 0 0 0 0 0 0 0 0 0 0 0 0 0 0 0 0 127 0" result="hardAlpha"/>
<feOffset dx="2" dy="4"/>
<feGaussianBlur stdDeviation="2"/>
<feComposite in2="hardAlpha" operator="arithmetic" k2="-1" k3="1"/>
<feColorMatrix type="matrix" values="0 0 0 0 1 0 0 0 0 1 0 0 0 0 1 0 0 0 0.3 0"/>
<feBlend mode="normal" in2="shape" result="effect2_innerShadow_1_78"/>
<feColorMatrix in="SourceAlpha" type="matrix" values="0 0 0 0 0 0 0 0 0 0 0 0 0 0 0 0 0 0 127 0" result="hardAlpha"/>
<feOffset dx="-2" dy="-4"/>
<feGaussianBlur stdDeviation="2"/>
<feComposite in2="hardAlpha" operator="arithmetic" k2="-1" k3="1"/>
<feColorMatrix type="matrix" values="0 0 0 0 0 0 0 0 0 0 0 0 0 0 0 0 0 0 0.3 0"/>
<feBlend mode="normal" in2="effect2_innerShadow_1_78" result="effect3_innerShadow_1_78"/>
</filter>
<filter id="filter10_dii_1_78" x="188" y="304" width="18" height="20" filterUnits="userSpaceOnUse" color-interpolation-filters="sRGB">
<feFlood flood-opacity="0" result="BackgroundImageFix"/>
<feColorMatrix in="SourceAlpha" type="matrix" values="0 0 0 0 0 0 0 0 0 0 0 0 0 0 0 0 0 0 127 0" result="hardAlpha"/>
<feOffset dx="2" dy="2"/>
<feGaussianBlur stdDeviation="2"/>
<feComposite in2="hardAlpha" operator="out"/>
<feColorMatrix type="matrix" values="0 0 0 0 0 0 0 0 0 0 0 0 0 0 0 0 0 0 0.25 0"/>
<feBlend mode="normal" in2="BackgroundImageFix" result="effect1_dropShadow_1_78"/>
<feBlend mode="normal" in="SourceGraphic" in2="effect1_dropShadow_1_78" result="shape"/>
<feColorMatrix in="SourceAlpha" type="matrix" values="0 0 0 0 0 0 0 0 0 0 0 0 0 0 0 0 0 0 127 0" result="hardAlpha"/>
<feOffset dx="2" dy="4"/>
<feGaussianBlur stdDeviation="2"/>
<feComposite in2="hardAlpha" operator="arithmetic" k2="-1" k3="1"/>
<feColorMatrix type="matrix" values="0 0 0 0 1 0 0 0 0 1 0 0 0 0 1 0 0 0 0.3 0"/>
<feBlend mode="normal" in2="shape" result="effect2_innerShadow_1_78"/>
<feColorMatrix in="SourceAlpha" type="matrix" values="0 0 0 0 0 0 0 0 0 0 0 0 0 0 0 0 0 0 127 0" result="hardAlpha"/>
<feOffset dx="-2" dy="-4"/>
<feGaussianBlur stdDeviation="2"/>
<feComposite in2="hardAlpha" operator="arithmetic" k2="-1" k3="1"/>
<feColorMatrix type="matrix" values="0 0 0 0 0 0 0 0 0 0 0 0 0 0 0 0 0 0 0.3 0"/>
<feBlend mode="normal" in2="effect2_innerShadow_1_78" result="effect3_innerShadow_1_78"/>
</filter>
</defs>
</svg>
