<svg width="619" height="349" viewBox="0 0 619 349" fill="none" xmlns="http://www.w3.org/2000/svg">
<g filter="url(#filter0_d_3_7)">
<g filter="url(#filter1_i_3_7)">
<path d="M43.2985 35.4398C43.2985 30.3795 47.0785 26.1168 52.1025 25.5116L171.805 11.0918C177.759 10.3746 183.001 15.023 183.001 21.02V56.4303C183.001 61.9532 178.524 66.4303 173.001 66.4303H53.2984C47.7756 66.4303 43.2985 61.9532 43.2985 56.4303V35.4398Z" fill="#D7F2F9"/>
</g>
<g filter="url(#filter2_i_3_7)">
<path d="M598.551 35.4398C598.551 30.3795 594.771 26.1168 589.747 25.5116L470.044 11.0918C464.09 10.3746 458.848 15.023 458.848 21.02V56.4303C458.848 61.9532 463.325 66.4303 468.848 66.4303H588.551C594.074 66.4303 598.551 61.9532 598.551 56.4303V35.4398Z" fill="#D7F2F9"/>
</g>
<g filter="url(#filter3_i_3_7)">
<path d="M43.2985 296.712C43.2985 301.772 47.0785 306.035 52.1025 306.64L171.805 321.06C177.759 321.777 183.001 317.129 183.001 311.132V275.721C183.001 270.199 178.524 265.721 173.001 265.721H53.2984C47.7756 265.721 43.2985 270.199 43.2985 275.721V296.712Z" fill="#D7F2F9"/>
</g>
<g filter="url(#filter4_i_3_7)">
<path d="M598.551 296.712C598.551 301.772 594.771 306.035 589.747 306.64L470.044 321.06C464.09 321.777 458.848 317.129 458.848 311.132V275.721C458.848 270.199 463.325 265.721 468.848 265.721H588.551C594.074 265.721 598.551 270.199 598.551 275.721V296.712Z" fill="#D7F2F9"/>
</g>
<path d="M46.8578 69.0875H143.849V263.064H46.8578V69.0875Z" fill="#161616"/>
<path d="M143.849 138.175H594.992V193.977H143.849V138.175Z" fill="#161616"/>
<ellipse cx="63.3196" cy="166.076" rx="55.6142" ry="55.3586" fill="#161616"/>
<g filter="url(#filter5_ii_3_7)">
<path fill-rule="evenodd" clip-rule="evenodd" d="M125.55 173.605H0.199583C4.13509 204.573 30.6953 228.52 62.8746 228.52C95.0539 228.52 121.614 204.573 125.55 173.605ZM125.749 159.433H0C3.12853 127.611 30.0843 102.746 62.8746 102.746C95.6649 102.746 122.621 127.611 125.749 159.433Z" fill="#D7F2F9"/>
</g>
<g filter="url(#filter6_d_3_7)">
<ellipse cx="63.3195" cy="166.076" rx="41.377" ry="41.1868" fill="#161616"/>
</g>
<ellipse cx="63.3195" cy="166.076" rx="23.5804" ry="23.472" fill="#05C8FF"/>
<g filter="url(#filter7_ii_3_7)">
<ellipse cx="510.458" cy="174.49" rx="14.2372" ry="14.1718" fill="#188B2B"/>
</g>
<g filter="url(#filter8_ii_3_7)">
<ellipse cx="546.941" cy="157.661" rx="14.2372" ry="14.1718" fill="#188B2B"/>
</g>
<rect x="178.552" y="22.1434" width="289.194" height="285.207" rx="20" fill="#161616"/>
<rect x="190.12" y="34.5438" width="265.169" height="261.293" rx="10" fill="#05C8FF"/>
<g filter="url(#filter9_ii_3_7)">
<path fill-rule="evenodd" clip-rule="evenodd" d="M178.552 193.977H141.407C131.979 233.597 96.355 263.064 53.8489 263.064H40.6289V276.35C40.6289 281.242 44.6128 285.208 49.5272 285.208H48.6374C82.5302 289.126 116.264 294.065 131.391 299.379C142.43 303.257 154.415 311.616 166.657 320.153C171.081 323.238 175.539 326.346 179.997 329.275C182.112 330.664 186.632 332.152 189.23 332.152H454.399C456.997 332.152 461.517 330.664 463.632 329.275C468.087 326.348 472.542 323.242 476.963 320.159L476.968 320.155L476.971 320.153C489.213 311.616 501.199 303.257 512.238 299.379C527.365 294.065 561.099 289.126 594.992 285.208H594.102C599.016 285.208 603 281.242 603 276.35V202.834C603 197.942 599.016 193.977 594.102 193.977H467.746V287.351C467.746 298.397 458.792 307.351 447.746 307.351H198.552C187.507 307.351 178.552 298.397 178.552 287.351V193.977Z" fill="#EC1313"/>
</g>
<g filter="url(#filter10_ii_3_7)">
<path fill-rule="evenodd" clip-rule="evenodd" d="M179.997 2.87696C181.843 1.66437 187.006 0 189.23 0H454.399C456.997 0 461.962 1.78005 463.632 2.87697C468.089 5.80502 472.546 8.91267 476.969 11.9971L476.971 11.999C489.213 20.536 501.199 28.8943 512.238 32.7723C527.365 38.0867 561.099 43.0261 594.992 46.9441H594.102C599.016 46.9441 603 50.9097 603 55.8015V129.318C603 134.209 599.016 138.175 594.102 138.175H467.746V42.1434C467.746 31.0977 458.792 22.1434 447.746 22.1434H198.552C187.507 22.1434 178.552 31.0977 178.552 42.1434V138.175H141.407C131.979 98.5545 96.3551 69.0875 53.849 69.0875H40.6289V55.8015C40.6289 50.9097 44.6128 46.9441 49.5272 46.9441H48.6374C82.5303 43.0261 116.264 38.0867 131.391 32.7723C142.43 28.8944 154.415 20.536 166.657 11.999L166.657 11.999C171.081 8.91396 175.539 5.80562 179.997 2.87696Z" fill="#EC1313"/>
</g>
<rect width="41.7116" height="5.3173" rx="2.65865" transform="matrix(0.940197 -0.340631 0.343414 0.939184 479.474 231.196)" fill="#161616"/>
<rect width="29.9945" height="11.1286" rx="5.56428" transform="matrix(0.940197 0.340631 0.343414 -0.939184 141.179 246.944)" fill="#161616"/>
<rect width="29.9945" height="11.1286" rx="5.56428" transform="matrix(0.940197 0.340631 0.343414 -0.939184 140.29 265.544)" fill="#161616"/>
<rect width="41.7116" height="5.3173" rx="2.65865" transform="matrix(0.940197 -0.340631 0.343414 0.939184 479.474 240.054)" fill="#161616"/>
<rect width="41.7116" height="5.3173" rx="2.65865" transform="matrix(0.940197 -0.340631 0.343414 0.939184 479.474 248.911)" fill="#161616"/>
<rect width="41.7116" height="5.3173" rx="2.65865" transform="matrix(0.940197 -0.340631 0.343414 0.939184 479.474 257.769)" fill="#161616"/>
<g filter="url(#filter11_dii_3_7)">
<ellipse cx="508.678" cy="66.4304" rx="8.89828" ry="8.85738" fill="#188B2B"/>
</g>
<g filter="url(#filter12_dii_3_7)">
<ellipse cx="165.205" cy="249.778" rx="4.44914" ry="4.42869" fill="#D7F2F9"/>
</g>
<g filter="url(#filter13_dii_3_7)">
<ellipse cx="164.315" cy="268.379" rx="4.44914" ry="4.42869" fill="#D7F2F9"/>
</g>
</g>
<defs>
<filter id="filter0_d_3_7" x="0" y="0" width="619" height="348.152" filterUnits="userSpaceOnUse" color-interpolation-filters="sRGB">
<feFlood flood-opacity="0" result="BackgroundImageFix"/>
<feColorMatrix in="SourceAlpha" type="matrix" values="0 0 0 0 0 0 0 0 0 0 0 0 0 0 0 0 0 0 127 0" result="hardAlpha"/>
<feOffset dx="8" dy="8"/>
<feGaussianBlur stdDeviation="4"/>
<feComposite in2="hardAlpha" operator="out"/>
<feColorMatrix type="matrix" values="0 0 0 0 0 0 0 0 0 0 0 0 0 0 0 0 0 0 0.25 0"/>
<feBlend mode="normal" in2="BackgroundImageFix" result="effect1_dropShadow_3_7"/>
<feBlend mode="normal" in="SourceGraphic" in2="effect1_dropShadow_3_7" result="shape"/>
</filter>
<filter id="filter1_i_3_7" x="43.2985" y="11.0187" width="139.703" height="59.4116" filterUnits="userSpaceOnUse" color-interpolation-filters="sRGB">
<feFlood flood-opacity="0" result="BackgroundImageFix"/>
<feBlend mode="normal" in="SourceGraphic" in2="BackgroundImageFix" result="shape"/>
<feColorMatrix in="SourceAlpha" type="matrix" values="0 0 0 0 0 0 0 0 0 0 0 0 0 0 0 0 0 0 127 0" result="hardAlpha"/>
<feOffset dy="4"/>
<feGaussianBlur stdDeviation="2"/>
<feComposite in2="hardAlpha" operator="arithmetic" k2="-1" k3="1"/>
<feColorMatrix type="matrix" values="0 0 0 0 1 0 0 0 0 1 0 0 0 0 1 0 0 0 0.8 0"/>
<feBlend mode="normal" in2="shape" result="effect1_innerShadow_3_7"/>
</filter>
<filter id="filter2_i_3_7" x="458.848" y="11.0187" width="139.703" height="59.4116" filterUnits="userSpaceOnUse" color-interpolation-filters="sRGB">
<feFlood flood-opacity="0" result="BackgroundImageFix"/>
<feBlend mode="normal" in="SourceGraphic" in2="BackgroundImageFix" result="shape"/>
<feColorMatrix in="SourceAlpha" type="matrix" values="0 0 0 0 0 0 0 0 0 0 0 0 0 0 0 0 0 0 127 0" result="hardAlpha"/>
<feOffset dy="4"/>
<feGaussianBlur stdDeviation="2"/>
<feComposite in2="hardAlpha" operator="arithmetic" k2="-1" k3="1"/>
<feColorMatrix type="matrix" values="0 0 0 0 1 0 0 0 0 1 0 0 0 0 1 0 0 0 0.8 0"/>
<feBlend mode="normal" in2="shape" result="effect1_innerShadow_3_7"/>
</filter>
<filter id="filter3_i_3_7" x="41.2985" y="261.721" width="141.703" height="59.4116" filterUnits="userSpaceOnUse" color-interpolation-filters="sRGB">
<feFlood flood-opacity="0" result="BackgroundImageFix"/>
<feBlend mode="normal" in="SourceGraphic" in2="BackgroundImageFix" result="shape"/>
<feColorMatrix in="SourceAlpha" type="matrix" values="0 0 0 0 0 0 0 0 0 0 0 0 0 0 0 0 0 0 127 0" result="hardAlpha"/>
<feOffset dx="-2" dy="-4"/>
<feGaussianBlur stdDeviation="2"/>
<feComposite in2="hardAlpha" operator="arithmetic" k2="-1" k3="1"/>
<feColorMatrix type="matrix" values="0 0 0 0 0 0 0 0 0 0 0 0 0 0 0 0 0 0 0.25 0"/>
<feBlend mode="normal" in2="shape" result="effect1_innerShadow_3_7"/>
</filter>
<filter id="filter4_i_3_7" x="456.848" y="261.721" width="141.703" height="59.4116" filterUnits="userSpaceOnUse" color-interpolation-filters="sRGB">
<feFlood flood-opacity="0" result="BackgroundImageFix"/>
<feBlend mode="normal" in="SourceGraphic" in2="BackgroundImageFix" result="shape"/>
<feColorMatrix in="SourceAlpha" type="matrix" values="0 0 0 0 0 0 0 0 0 0 0 0 0 0 0 0 0 0 127 0" result="hardAlpha"/>
<feOffset dx="-2" dy="-4"/>
<feGaussianBlur stdDeviation="2"/>
<feComposite in2="hardAlpha" operator="arithmetic" k2="-1" k3="1"/>
<feColorMatrix type="matrix" values="0 0 0 0 0 0 0 0 0 0 0 0 0 0 0 0 0 0 0.25 0"/>
<feBlend mode="normal" in2="shape" result="effect1_innerShadow_3_7"/>
</filter>
<filter id="filter5_ii_3_7" x="-2" y="98.7456" width="129.749" height="133.775" filterUnits="userSpaceOnUse" color-interpolation-filters="sRGB">
<feFlood flood-opacity="0" result="BackgroundImageFix"/>
<feBlend mode="normal" in="SourceGraphic" in2="BackgroundImageFix" result="shape"/>
<feColorMatrix in="SourceAlpha" type="matrix" values="0 0 0 0 0 0 0 0 0 0 0 0 0 0 0 0 0 0 127 0" result="hardAlpha"/>
<feOffset dx="2" dy="4"/>
<feGaussianBlur stdDeviation="2"/>
<feComposite in2="hardAlpha" operator="arithmetic" k2="-1" k3="1"/>
<feColorMatrix type="matrix" values="0 0 0 0 1 0 0 0 0 1 0 0 0 0 1 0 0 0 0.8 0"/>
<feBlend mode="normal" in2="shape" result="effect1_innerShadow_3_7"/>
<feColorMatrix in="SourceAlpha" type="matrix" values="0 0 0 0 0 0 0 0 0 0 0 0 0 0 0 0 0 0 127 0" result="hardAlpha"/>
<feOffset dx="-2" dy="-4"/>
<feGaussianBlur stdDeviation="2"/>
<feComposite in2="hardAlpha" operator="arithmetic" k2="-1" k3="1"/>
<feColorMatrix type="matrix" values="0 0 0 0 0 0 0 0 0 0 0 0 0 0 0 0 0 0 0.25 0"/>
<feBlend mode="normal" in2="effect1_innerShadow_3_7" result="effect2_innerShadow_3_7"/>
</filter>
<filter id="filter6_d_3_7" x="19.9426" y="124.889" width="90.754" height="90.3736" filterUnits="userSpaceOnUse" color-interpolation-filters="sRGB">
<feFlood flood-opacity="0" result="BackgroundImageFix"/>
<feColorMatrix in="SourceAlpha" type="matrix" values="0 0 0 0 0 0 0 0 0 0 0 0 0 0 0 0 0 0 127 0" result="hardAlpha"/>
<feOffset dx="2" dy="4"/>
<feGaussianBlur stdDeviation="2"/>
<feComposite in2="hardAlpha" operator="out"/>
<feColorMatrix type="matrix" values="0 0 0 0 0 0 0 0 0 0 0 0 0 0 0 0 0 0 0.25 0"/>
<feBlend mode="normal" in2="BackgroundImageFix" result="effect1_dropShadow_3_7"/>
<feBlend mode="normal" in="SourceGraphic" in2="effect1_dropShadow_3_7" result="shape"/>
</filter>
<filter id="filter7_ii_3_7" x="494.221" y="156.318" width="32.4745" height="36.3436" filterUnits="userSpaceOnUse" color-interpolation-filters="sRGB">
<feFlood flood-opacity="0" result="BackgroundImageFix"/>
<feBlend mode="normal" in="SourceGraphic" in2="BackgroundImageFix" result="shape"/>
<feColorMatrix in="SourceAlpha" type="matrix" values="0 0 0 0 0 0 0 0 0 0 0 0 0 0 0 0 0 0 127 0" result="hardAlpha"/>
<feOffset dx="2" dy="4"/>
<feGaussianBlur stdDeviation="2"/>
<feComposite in2="hardAlpha" operator="arithmetic" k2="-1" k3="1"/>
<feColorMatrix type="matrix" values="0 0 0 0 1 0 0 0 0 1 0 0 0 0 1 0 0 0 0.3 0"/>
<feBlend mode="normal" in2="shape" result="effect1_innerShadow_3_7"/>
<feColorMatrix in="SourceAlpha" type="matrix" values="0 0 0 0 0 0 0 0 0 0 0 0 0 0 0 0 0 0 127 0" result="hardAlpha"/>
<feOffset dx="-2" dy="-4"/>
<feGaussianBlur stdDeviation="2"/>
<feComposite in2="hardAlpha" operator="arithmetic" k2="-1" k3="1"/>
<feColorMatrix type="matrix" values="0 0 0 0 0 0 0 0 0 0 0 0 0 0 0 0 0 0 0.3 0"/>
<feBlend mode="normal" in2="effect1_innerShadow_3_7" result="effect2_innerShadow_3_7"/>
</filter>
<filter id="filter8_ii_3_7" x="530.704" y="139.49" width="32.4745" height="36.3436" filterUnits="userSpaceOnUse" color-interpolation-filters="sRGB">
<feFlood flood-opacity="0" result="BackgroundImageFix"/>
<feBlend mode="normal" in="SourceGraphic" in2="BackgroundImageFix" result="shape"/>
<feColorMatrix in="SourceAlpha" type="matrix" values="0 0 0 0 0 0 0 0 0 0 0 0 0 0 0 0 0 0 127 0" result="hardAlpha"/>
<feOffset dx="2" dy="4"/>
<feGaussianBlur stdDeviation="2"/>
<feComposite in2="hardAlpha" operator="arithmetic" k2="-1" k3="1"/>
<feColorMatrix type="matrix" values="0 0 0 0 1 0 0 0 0 1 0 0 0 0 1 0 0 0 0.3 0"/>
<feBlend mode="normal" in2="shape" result="effect1_innerShadow_3_7"/>
<feColorMatrix in="SourceAlpha" type="matrix" values="0 0 0 0 0 0 0 0 0 0 0 0 0 0 0 0 0 0 127 0" result="hardAlpha"/>
<feOffset dx="-2" dy="-4"/>
<feGaussianBlur stdDeviation="2"/>
<feComposite in2="hardAlpha" operator="arithmetic" k2="-1" k3="1"/>
<feColorMatrix type="matrix" values="0 0 0 0 0 0 0 0 0 0 0 0 0 0 0 0 0 0 0.3 0"/>
<feBlend mode="normal" in2="effect1_innerShadow_3_7" result="effect2_innerShadow_3_7"/>
</filter>
<filter id="filter9_ii_3_7" x="38.6289" y="189.977" width="566.371" height="146.175" filterUnits="userSpaceOnUse" color-interpolation-filters="sRGB">
<feFlood flood-opacity="0" result="BackgroundImageFix"/>
<feBlend mode="normal" in="SourceGraphic" in2="BackgroundImageFix" result="shape"/>
<feColorMatrix in="SourceAlpha" type="matrix" values="0 0 0 0 0 0 0 0 0 0 0 0 0 0 0 0 0 0 127 0" result="hardAlpha"/>
<feOffset dx="-2" dy="-4"/>
<feGaussianBlur stdDeviation="2"/>
<feComposite in2="hardAlpha" operator="arithmetic" k2="-1" k3="1"/>
<feColorMatrix type="matrix" values="0 0 0 0 0 0 0 0 0 0 0 0 0 0 0 0 0 0 0.25 0"/>
<feBlend mode="normal" in2="shape" result="effect1_innerShadow_3_7"/>
<feColorMatrix in="SourceAlpha" type="matrix" values="0 0 0 0 0 0 0 0 0 0 0 0 0 0 0 0 0 0 127 0" result="hardAlpha"/>
<feOffset dx="2" dy="4"/>
<feGaussianBlur stdDeviation="2"/>
<feComposite in2="hardAlpha" operator="arithmetic" k2="-1" k3="1"/>
<feColorMatrix type="matrix" values="0 0 0 0 1 0 0 0 0 1 0 0 0 0 1 0 0 0 0.25 0"/>
<feBlend mode="normal" in2="effect1_innerShadow_3_7" result="effect2_innerShadow_3_7"/>
</filter>
<filter id="filter10_ii_3_7" x="38.6289" y="-4" width="566.371" height="146.175" filterUnits="userSpaceOnUse" color-interpolation-filters="sRGB">
<feFlood flood-opacity="0" result="BackgroundImageFix"/>
<feBlend mode="normal" in="SourceGraphic" in2="BackgroundImageFix" result="shape"/>
<feColorMatrix in="SourceAlpha" type="matrix" values="0 0 0 0 0 0 0 0 0 0 0 0 0 0 0 0 0 0 127 0" result="hardAlpha"/>
<feOffset dx="-2" dy="-4"/>
<feGaussianBlur stdDeviation="2"/>
<feComposite in2="hardAlpha" operator="arithmetic" k2="-1" k3="1"/>
<feColorMatrix type="matrix" values="0 0 0 0 0 0 0 0 0 0 0 0 0 0 0 0 0 0 0.25 0"/>
<feBlend mode="normal" in2="shape" result="effect1_innerShadow_3_7"/>
<feColorMatrix in="SourceAlpha" type="matrix" values="0 0 0 0 0 0 0 0 0 0 0 0 0 0 0 0 0 0 127 0" result="hardAlpha"/>
<feOffset dx="2" dy="4"/>
<feGaussianBlur stdDeviation="2"/>
<feComposite in2="hardAlpha" operator="arithmetic" k2="-1" k3="1"/>
<feColorMatrix type="matrix" values="0 0 0 0 1 0 0 0 0 1 0 0 0 0 1 0 0 0 0.25 0"/>
<feBlend mode="normal" in2="effect1_innerShadow_3_7" result="effect2_innerShadow_3_7"/>
</filter>
<filter id="filter11_dii_3_7" x="497.78" y="53.573" width="25.7965" height="27.7148" filterUnits="userSpaceOnUse" color-interpolation-filters="sRGB">
<feFlood flood-opacity="0" result="BackgroundImageFix"/>
<feColorMatrix in="SourceAlpha" type="matrix" values="0 0 0 0 0 0 0 0 0 0 0 0 0 0 0 0 0 0 127 0" result="hardAlpha"/>
<feOffset dx="2" dy="2"/>
<feGaussianBlur stdDeviation="2"/>
<feComposite in2="hardAlpha" operator="out"/>
<feColorMatrix type="matrix" values="0 0 0 0 0 0 0 0 0 0 0 0 0 0 0 0 0 0 0.25 0"/>
<feBlend mode="normal" in2="BackgroundImageFix" result="effect1_dropShadow_3_7"/>
<feBlend mode="normal" in="SourceGraphic" in2="effect1_dropShadow_3_7" result="shape"/>
<feColorMatrix in="SourceAlpha" type="matrix" values="0 0 0 0 0 0 0 0 0 0 0 0 0 0 0 0 0 0 127 0" result="hardAlpha"/>
<feOffset dx="2" dy="4"/>
<feGaussianBlur stdDeviation="2"/>
<feComposite in2="hardAlpha" operator="arithmetic" k2="-1" k3="1"/>
<feColorMatrix type="matrix" values="0 0 0 0 1 0 0 0 0 1 0 0 0 0 1 0 0 0 0.3 0"/>
<feBlend mode="normal" in2="shape" result="effect2_innerShadow_3_7"/>
<feColorMatrix in="SourceAlpha" type="matrix" values="0 0 0 0 0 0 0 0 0 0 0 0 0 0 0 0 0 0 127 0" result="hardAlpha"/>
<feOffset dx="-2" dy="-4"/>
<feGaussianBlur stdDeviation="2"/>
<feComposite in2="hardAlpha" operator="arithmetic" k2="-1" k3="1"/>
<feColorMatrix type="matrix" values="0 0 0 0 0 0 0 0 0 0 0 0 0 0 0 0 0 0 0.3 0"/>
<feBlend mode="normal" in2="effect2_innerShadow_3_7" result="effect3_innerShadow_3_7"/>
</filter>
<filter id="filter12_dii_3_7" x="158.756" y="241.349" width="16.8983" height="18.8574" filterUnits="userSpaceOnUse" color-interpolation-filters="sRGB">
<feFlood flood-opacity="0" result="BackgroundImageFix"/>
<feColorMatrix in="SourceAlpha" type="matrix" values="0 0 0 0 0 0 0 0 0 0 0 0 0 0 0 0 0 0 127 0" result="hardAlpha"/>
<feOffset dx="2" dy="2"/>
<feGaussianBlur stdDeviation="2"/>
<feComposite in2="hardAlpha" operator="out"/>
<feColorMatrix type="matrix" values="0 0 0 0 0 0 0 0 0 0 0 0 0 0 0 0 0 0 0.25 0"/>
<feBlend mode="normal" in2="BackgroundImageFix" result="effect1_dropShadow_3_7"/>
<feBlend mode="normal" in="SourceGraphic" in2="effect1_dropShadow_3_7" result="shape"/>
<feColorMatrix in="SourceAlpha" type="matrix" values="0 0 0 0 0 0 0 0 0 0 0 0 0 0 0 0 0 0 127 0" result="hardAlpha"/>
<feOffset dx="2" dy="4"/>
<feGaussianBlur stdDeviation="2"/>
<feComposite in2="hardAlpha" operator="arithmetic" k2="-1" k3="1"/>
<feColorMatrix type="matrix" values="0 0 0 0 1 0 0 0 0 1 0 0 0 0 1 0 0 0 0.3 0"/>
<feBlend mode="normal" in2="shape" result="effect2_innerShadow_3_7"/>
<feColorMatrix in="SourceAlpha" type="matrix" values="0 0 0 0 0 0 0 0 0 0 0 0 0 0 0 0 0 0 127 0" result="hardAlpha"/>
<feOffset dx="-2" dy="-4"/>
<feGaussianBlur stdDeviation="2"/>
<feComposite in2="hardAlpha" operator="arithmetic" k2="-1" k3="1"/>
<feColorMatrix type="matrix" values="0 0 0 0 0 0 0 0 0 0 0 0 0 0 0 0 0 0 0.3 0"/>
<feBlend mode="normal" in2="effect2_innerShadow_3_7" result="effect3_innerShadow_3_7"/>
</filter>
<filter id="filter13_dii_3_7" x="157.866" y="259.95" width="16.8983" height="18.8574" filterUnits="userSpaceOnUse" color-interpolation-filters="sRGB">
<feFlood flood-opacity="0" result="BackgroundImageFix"/>
<feColorMatrix in="SourceAlpha" type="matrix" values="0 0 0 0 0 0 0 0 0 0 0 0 0 0 0 0 0 0 127 0" result="hardAlpha"/>
<feOffset dx="2" dy="2"/>
<feGaussianBlur stdDeviation="2"/>
<feComposite in2="hardAlpha" operator="out"/>
<feColorMatrix type="matrix" values="0 0 0 0 0 0 0 0 0 0 0 0 0 0 0 0 0 0 0.25 0"/>
<feBlend mode="normal" in2="BackgroundImageFix" result="effect1_dropShadow_3_7"/>
<feBlend mode="normal" in="SourceGraphic" in2="effect1_dropShadow_3_7" result="shape"/>
<feColorMatrix in="SourceAlpha" type="matrix" values="0 0 0 0 0 0 0 0 0 0 0 0 0 0 0 0 0 0 127 0" result="hardAlpha"/>
<feOffset dx="2" dy="4"/>
<feGaussianBlur stdDeviation="2"/>
<feComposite in2="hardAlpha" operator="arithmetic" k2="-1" k3="1"/>
<feColorMatrix type="matrix" values="0 0 0 0 1 0 0 0 0 1 0 0 0 0 1 0 0 0 0.3 0"/>
<feBlend mode="normal" in2="shape" result="effect2_innerShadow_3_7"/>
<feColorMatrix in="SourceAlpha" type="matrix" values="0 0 0 0 0 0 0 0 0 0 0 0 0 0 0 0 0 0 127 0" result="hardAlpha"/>
<feOffset dx="-2" dy="-4"/>
<feGaussianBlur stdDeviation="2"/>
<feComposite in2="hardAlpha" operator="arithmetic" k2="-1" k3="1"/>
<feColorMatrix type="matrix" values="0 0 0 0 0 0 0 0 0 0 0 0 0 0 0 0 0 0 0.3 0"/>
<feBlend mode="normal" in2="effect2_innerShadow_3_7" result="effect3_innerShadow_3_7"/>
</filter>
</defs>
</svg>
